<svg xmlns="http://www.w3.org/2000/svg" width="16" height="16" viewBox="0 0 16 16" class=""><path fill-rule="evenodd" clip-rule="evenodd" d="M3 3.25C2.30964 3.25 1.75 3.80964 1.75 4.5V11.5C1.75 12.1904 2.30964 12.75 3 12.75H13C13.6904 12.75 14.25 12.1904 14.25 11.5V4.5C14.25 3.80964 13.6904 3.25 13 3.25H3ZM0.25 4.5C0.25 2.98122 1.48122 1.75 3 1.75H13C14.5188 1.75 15.75 2.98122 15.75 4.5V11.5C15.75 13.0188 14.5188 14.25 13 14.25H3C1.48122 14.25 0.25 13.0188 0.25 11.5V4.5Z"></path><path fill-rule="evenodd" clip-rule="evenodd" d="M6.90364 5.58477C7.15169 5.45562 7.45099 5.4752 7.6801 5.63558L10.1801 7.38558C10.3806 7.52592 10.5 7.75526 10.5 8C10.5 8.24474 10.3806 8.47408 10.1801 8.61442L7.6801 10.3644C7.45099 10.5248 7.15169 10.5444 6.90364 10.4152C6.65559 10.2861 6.5 10.0297 6.5 9.75V6.25C6.5 5.97034 6.65559 5.71391 6.90364 5.58477ZM8 7.69049V8.30951L8.44215 8L8 7.69049Z"></path></svg>